<?xml version="1.0" encoding="UTF-8" standalone="no"?>
<!DOCTYPE svg PUBLIC "-//W3C//DTD SVG 1.1//EN"
 "http://www.w3.org/Graphics/SVG/1.1/DTD/svg11.dtd">
<!-- Generated by graphviz version 2.43.0 (0)
 -->
<!-- Title: %3 Pages: 1 -->
<svg width="1464pt" height="332pt"
 viewBox="0.00 0.00 1464.48 332.00" xmlns="http://www.w3.org/2000/svg" xmlns:xlink="http://www.w3.org/1999/xlink">
<g id="graph0" class="graph" transform="scale(1 1) rotate(0) translate(4 328)">
<title>%3</title>
<polygon fill="white" stroke="transparent" points="-4,4 -4,-328 1460.48,-328 1460.48,4 -4,4"/>
<!-- [root] local_file.pet (expand) -->
<g id="node1" class="node">
<title>[root] local_file.pet (expand)</title>
<polygon fill="none" stroke="black" points="666.98,-180 560.98,-180 560.98,-144 666.98,-144 666.98,-180"/>
<text text-anchor="middle" x="613.98" y="-158.3" font-family="Times,serif" font-size="14.00">local_file.pet</text>
</g>
<!-- [root] provider[&quot;registry.terraform.io/hashicorp/local&quot;] -->
<g id="node4" class="node">
<title>[root] provider[&quot;registry.terraform.io/hashicorp/local&quot;]</title>
<polygon fill="none" stroke="black" points="329.98,-108 0.02,-90 329.98,-72 659.93,-90 329.98,-108"/>
<text text-anchor="middle" x="329.98" y="-86.3" font-family="Times,serif" font-size="14.00">provider[&quot;registry.terraform.io/hashicorp/local&quot;]</text>
</g>
<!-- [root] local_file.pet (expand)&#45;&gt;[root] provider[&quot;registry.terraform.io/hashicorp/local&quot;] -->
<g id="edge1" class="edge">
<title>[root] local_file.pet (expand)&#45;&gt;[root] provider[&quot;registry.terraform.io/hashicorp/local&quot;]</title>
<path fill="none" stroke="black" d="M560.89,-147.92C514.38,-136.45 446.58,-119.74 396.47,-107.39"/>
<polygon fill="black" stroke="black" points="397.24,-103.98 386.7,-104.98 395.57,-110.77 397.24,-103.98"/>
</g>
<!-- [root] random_pet.my&#45;pet (expand) -->
<g id="node6" class="node">
<title>[root] random_pet.my&#45;pet (expand)</title>
<polygon fill="none" stroke="black" points="1071.48,-108 916.48,-108 916.48,-72 1071.48,-72 1071.48,-108"/>
<text text-anchor="middle" x="993.98" y="-86.3" font-family="Times,serif" font-size="14.00">random_pet.my&#45;pet</text>
</g>
<!-- [root] local_file.pet (expand)&#45;&gt;[root] random_pet.my&#45;pet (expand) -->
<g id="edge2" class="edge">
<title>[root] local_file.pet (expand)&#45;&gt;[root] random_pet.my&#45;pet (expand)</title>
<path fill="none" stroke="black" d="M666.99,-146.08C670.02,-145.35 673.03,-144.65 675.98,-144 753.29,-127 842.24,-112.61 906.37,-103.13"/>
<polygon fill="black" stroke="black" points="907.06,-106.57 916.44,-101.65 906.04,-99.64 907.06,-106.57"/>
</g>
<!-- [root] var.filename -->
<g id="node8" class="node">
<title>[root] var.filename</title>
<polygon fill="none" stroke="black" points="775.98,-108 677.98,-108 677.98,-72 781.98,-72 781.98,-102 775.98,-108"/>
<polyline fill="none" stroke="black" points="775.98,-108 775.98,-102 "/>
<polyline fill="none" stroke="black" points="781.98,-102 775.98,-102 "/>
<text text-anchor="middle" x="729.98" y="-86.3" font-family="Times,serif" font-size="14.00">var.filename</text>
</g>
<!-- [root] local_file.pet (expand)&#45;&gt;[root] var.filename -->
<g id="edge3" class="edge">
<title>[root] local_file.pet (expand)&#45;&gt;[root] var.filename</title>
<path fill="none" stroke="black" d="M642.35,-143.88C657.52,-134.72 676.38,-123.34 692.72,-113.48"/>
<polygon fill="black" stroke="black" points="694.74,-116.35 701.49,-108.19 691.12,-110.36 694.74,-116.35"/>
</g>
<!-- [root] output.content -->
<g id="node2" class="node">
<title>[root] output.content</title>
<polygon fill="none" stroke="black" points="368.98,-252 252.98,-252 252.98,-216 374.98,-216 374.98,-246 368.98,-252"/>
<polyline fill="none" stroke="black" points="368.98,-252 368.98,-246 "/>
<polyline fill="none" stroke="black" points="374.98,-246 368.98,-246 "/>
<text text-anchor="middle" x="313.98" y="-230.3" font-family="Times,serif" font-size="14.00">output.content</text>
</g>
<!-- [root] output.content&#45;&gt;[root] local_file.pet (expand) -->
<g id="edge4" class="edge">
<title>[root] output.content&#45;&gt;[root] local_file.pet (expand)</title>
<path fill="none" stroke="black" d="M375.05,-218.12C378.07,-217.4 381.06,-216.69 383.98,-216 440.45,-202.64 504.82,-187.84 551.07,-177.29"/>
<polygon fill="black" stroke="black" points="551.98,-180.67 560.95,-175.03 550.42,-173.84 551.98,-180.67"/>
</g>
<!-- [root] output.pet&#45;name -->
<g id="node3" class="node">
<title>[root] output.pet&#45;name</title>
<polygon fill="none" stroke="black" points="1450.48,-180 1321.48,-180 1321.48,-144 1456.48,-144 1456.48,-174 1450.48,-180"/>
<polyline fill="none" stroke="black" points="1450.48,-180 1450.48,-174 "/>
<polyline fill="none" stroke="black" points="1456.48,-174 1450.48,-174 "/>
<text text-anchor="middle" x="1388.98" y="-158.3" font-family="Times,serif" font-size="14.00">output.pet&#45;name</text>
</g>
<!-- [root] output.pet&#45;name&#45;&gt;[root] random_pet.my&#45;pet (expand) -->
<g id="edge5" class="edge">
<title>[root] output.pet&#45;name&#45;&gt;[root] random_pet.my&#45;pet (expand)</title>
<path fill="none" stroke="black" d="M1321.41,-145.87C1318.23,-145.23 1315.07,-144.6 1311.98,-144 1234.39,-128.98 1145.65,-114.41 1081.67,-104.35"/>
<polygon fill="black" stroke="black" points="1082.04,-100.87 1071.61,-102.78 1080.95,-107.79 1082.04,-100.87"/>
</g>
<!-- [root] provider[&quot;registry.terraform.io/hashicorp/random&quot;] -->
<g id="node5" class="node">
<title>[root] provider[&quot;registry.terraform.io/hashicorp/random&quot;]</title>
<polygon fill="none" stroke="black" points="528.98,-36 178.58,-18 528.98,0 879.38,-18 528.98,-36"/>
<text text-anchor="middle" x="528.98" y="-14.3" font-family="Times,serif" font-size="14.00">provider[&quot;registry.terraform.io/hashicorp/random&quot;]</text>
</g>
<!-- [root] random_pet.my&#45;pet (expand)&#45;&gt;[root] provider[&quot;registry.terraform.io/hashicorp/random&quot;] -->
<g id="edge8" class="edge">
<title>[root] random_pet.my&#45;pet (expand)&#45;&gt;[root] provider[&quot;registry.terraform.io/hashicorp/random&quot;]</title>
<path fill="none" stroke="black" d="M916.41,-77.32C835.88,-65.2 709.83,-46.23 623.52,-33.23"/>
<polygon fill="black" stroke="black" points="623.87,-29.75 613.46,-31.72 622.83,-36.67 623.87,-29.75"/>
</g>
<!-- [root] var.length -->
<g id="node9" class="node">
<title>[root] var.length</title>
<polygon fill="none" stroke="black" points="980.48,-36 897.48,-36 897.48,0 986.48,0 986.48,-30 980.48,-36"/>
<polyline fill="none" stroke="black" points="980.48,-36 980.48,-30 "/>
<polyline fill="none" stroke="black" points="986.48,-30 980.48,-30 "/>
<text text-anchor="middle" x="941.98" y="-14.3" font-family="Times,serif" font-size="14.00">var.length</text>
</g>
<!-- [root] random_pet.my&#45;pet (expand)&#45;&gt;[root] var.length -->
<g id="edge9" class="edge">
<title>[root] random_pet.my&#45;pet (expand)&#45;&gt;[root] var.length</title>
<path fill="none" stroke="black" d="M981.12,-71.7C974.95,-63.39 967.44,-53.28 960.65,-44.14"/>
<polygon fill="black" stroke="black" points="963.46,-42.04 954.68,-36.1 957.84,-46.22 963.46,-42.04"/>
</g>
<!-- [root] var.prefix -->
<g id="node10" class="node">
<title>[root] var.prefix</title>
<polygon fill="none" stroke="black" points="1081.98,-36 1003.98,-36 1003.98,0 1087.98,0 1087.98,-30 1081.98,-36"/>
<polyline fill="none" stroke="black" points="1081.98,-36 1081.98,-30 "/>
<polyline fill="none" stroke="black" points="1087.98,-30 1081.98,-30 "/>
<text text-anchor="middle" x="1045.98" y="-14.3" font-family="Times,serif" font-size="14.00">var.prefix</text>
</g>
<!-- [root] random_pet.my&#45;pet (expand)&#45;&gt;[root] var.prefix -->
<g id="edge10" class="edge">
<title>[root] random_pet.my&#45;pet (expand)&#45;&gt;[root] var.prefix</title>
<path fill="none" stroke="black" d="M1006.83,-71.7C1013,-63.39 1020.51,-53.28 1027.3,-44.14"/>
<polygon fill="black" stroke="black" points="1030.12,-46.22 1033.27,-36.1 1024.5,-42.04 1030.12,-46.22"/>
</g>
<!-- [root] var.separator -->
<g id="node11" class="node">
<title>[root] var.separator</title>
<polygon fill="none" stroke="black" points="1211.98,-36 1105.98,-36 1105.98,0 1217.98,0 1217.98,-30 1211.98,-36"/>
<polyline fill="none" stroke="black" points="1211.98,-36 1211.98,-30 "/>
<polyline fill="none" stroke="black" points="1217.98,-30 1211.98,-30 "/>
<text text-anchor="middle" x="1161.98" y="-14.3" font-family="Times,serif" font-size="14.00">var.separator</text>
</g>
<!-- [root] random_pet.my&#45;pet (expand)&#45;&gt;[root] var.separator -->
<g id="edge11" class="edge">
<title>[root] random_pet.my&#45;pet (expand)&#45;&gt;[root] var.separator</title>
<path fill="none" stroke="black" d="M1035.07,-71.88C1058.14,-62.26 1087.11,-50.19 1111.55,-40.01"/>
<polygon fill="black" stroke="black" points="1113.13,-43.15 1121.01,-36.07 1110.44,-36.68 1113.13,-43.15"/>
</g>
<!-- [root] var.content -->
<g id="node7" class="node">
<title>[root] var.content</title>
<polygon fill="none" stroke="black" points="1093.48,-252 1002.48,-252 1002.48,-216 1099.48,-216 1099.48,-246 1093.48,-252"/>
<polyline fill="none" stroke="black" points="1093.48,-252 1093.48,-246 "/>
<polyline fill="none" stroke="black" points="1099.48,-246 1093.48,-246 "/>
<text text-anchor="middle" x="1050.98" y="-230.3" font-family="Times,serif" font-size="14.00">var.content</text>
</g>
<!-- [root] provider[&quot;registry.terraform.io/hashicorp/local&quot;] (close) -->
<g id="node12" class="node">
<title>[root] provider[&quot;registry.terraform.io/hashicorp/local&quot;] (close)</title>
<ellipse fill="none" stroke="black" cx="688.98" cy="-234" rx="295.95" ry="18"/>
<text text-anchor="middle" x="688.98" y="-230.3" font-family="Times,serif" font-size="14.00">[root] provider[&quot;registry.terraform.io/hashicorp/local&quot;] (close)</text>
</g>
<!-- [root] provider[&quot;registry.terraform.io/hashicorp/local&quot;] (close)&#45;&gt;[root] local_file.pet (expand) -->
<g id="edge6" class="edge">
<title>[root] provider[&quot;registry.terraform.io/hashicorp/local&quot;] (close)&#45;&gt;[root] local_file.pet (expand)</title>
<path fill="none" stroke="black" d="M670.44,-215.7C661.17,-207.05 649.82,-196.45 639.72,-187.03"/>
<polygon fill="black" stroke="black" points="642,-184.37 632.3,-180.1 637.23,-189.49 642,-184.37"/>
</g>
<!-- [root] provider[&quot;registry.terraform.io/hashicorp/random&quot;] (close) -->
<g id="node13" class="node">
<title>[root] provider[&quot;registry.terraform.io/hashicorp/random&quot;] (close)</title>
<ellipse fill="none" stroke="black" cx="993.98" cy="-162" rx="309.25" ry="18"/>
<text text-anchor="middle" x="993.98" y="-158.3" font-family="Times,serif" font-size="14.00">[root] provider[&quot;registry.terraform.io/hashicorp/random&quot;] (close)</text>
</g>
<!-- [root] provider[&quot;registry.terraform.io/hashicorp/random&quot;] (close)&#45;&gt;[root] random_pet.my&#45;pet (expand) -->
<g id="edge7" class="edge">
<title>[root] provider[&quot;registry.terraform.io/hashicorp/random&quot;] (close)&#45;&gt;[root] random_pet.my&#45;pet (expand)</title>
<path fill="none" stroke="black" d="M993.98,-143.7C993.98,-135.98 993.98,-126.71 993.98,-118.11"/>
<polygon fill="black" stroke="black" points="997.48,-118.1 993.98,-108.1 990.48,-118.1 997.48,-118.1"/>
</g>
<!-- [root] root -->
<g id="node14" class="node">
<title>[root] root</title>
<ellipse fill="none" stroke="black" cx="1050.98" cy="-306" rx="58.49" ry="18"/>
<text text-anchor="middle" x="1050.98" y="-302.3" font-family="Times,serif" font-size="14.00">[root] root</text>
</g>
<!-- [root] root&#45;&gt;[root] output.content -->
<g id="edge12" class="edge">
<title>[root] root&#45;&gt;[root] output.content</title>
<path fill="none" stroke="black" d="M992.62,-303.48C877.9,-299.81 614.93,-288.07 385.53,-252.1"/>
<polygon fill="black" stroke="black" points="385.75,-248.59 375.33,-250.48 384.65,-255.51 385.75,-248.59"/>
</g>
<!-- [root] root&#45;&gt;[root] output.pet&#45;name -->
<g id="edge13" class="edge">
<title>[root] root&#45;&gt;[root] output.pet&#45;name</title>
<path fill="none" stroke="black" d="M1084,-291.13C1143.42,-266.16 1268.65,-213.55 1338.75,-184.1"/>
<polygon fill="black" stroke="black" points="1340.4,-187.2 1348.27,-180.1 1337.69,-180.75 1340.4,-187.2"/>
</g>
<!-- [root] root&#45;&gt;[root] var.content -->
<g id="edge16" class="edge">
<title>[root] root&#45;&gt;[root] var.content</title>
<path fill="none" stroke="black" d="M1050.98,-287.7C1050.98,-279.98 1050.98,-270.71 1050.98,-262.11"/>
<polygon fill="black" stroke="black" points="1054.48,-262.1 1050.98,-252.1 1047.48,-262.1 1054.48,-262.1"/>
</g>
<!-- [root] root&#45;&gt;[root] provider[&quot;registry.terraform.io/hashicorp/local&quot;] (close) -->
<g id="edge14" class="edge">
<title>[root] root&#45;&gt;[root] provider[&quot;registry.terraform.io/hashicorp/local&quot;] (close)</title>
<path fill="none" stroke="black" d="M1002.91,-295.7C947.18,-284.93 853.99,-266.91 783.58,-253.29"/>
<polygon fill="black" stroke="black" points="783.85,-249.78 773.36,-251.32 782.52,-256.65 783.85,-249.78"/>
</g>
<!-- [root] root&#45;&gt;[root] provider[&quot;registry.terraform.io/hashicorp/random&quot;] (close) -->
<g id="edge15" class="edge">
<title>[root] root&#45;&gt;[root] provider[&quot;registry.terraform.io/hashicorp/random&quot;] (close)</title>
<path fill="none" stroke="black" d="M1075.89,-289.6C1088.33,-280.4 1102.15,-267.48 1108.98,-252 1115.43,-237.36 1117.6,-229.47 1108.98,-216 1100.04,-202.05 1086.41,-191.72 1071.61,-184.08"/>
<polygon fill="black" stroke="black" points="1072.81,-180.78 1062.27,-179.67 1069.82,-187.11 1072.81,-180.78"/>
</g>
</g>
</svg>
